<?xml version="1.0" standalone="no"?>
<!DOCTYPE svg PUBLIC "-//W3C//DTD SVG 20010904//EN"
 "http://www.w3.org/TR/2001/REC-SVG-20010904/DTD/svg10.dtd">
<svg version="1.0" xmlns="http://www.w3.org/2000/svg"
 width="88.000000pt" height="88.000000pt" viewBox="0 0 88.000000 88.000000"
 preserveAspectRatio="xMidYMid meet">
<metadata>
Created by potrace 1.14, written by Peter Selinger 2001-2017
</metadata>
<g transform="translate(0.000000,88.000000) scale(0.100000,-0.100000)"
fill="#000000" stroke="none">
<path d="M399 714 c-21 -14 -118 -143 -184 -246 l-17 -28 45 0 c45 0 66 -18
50 -42 -3 -6 -2 -8 3 -5 6 3 21 -21 34 -54 41 -103 90 -133 150 -92 32 22 36
27 122 153 39 58 76 108 82 112 6 4 -12 8 -39 8 -50 0 -51 1 -65 38 -8 20 -14
43 -13 50 0 7 -2 11 -5 8 -3 -3 -13 12 -23 33 -34 77 -83 100 -140 65z m31
-174 c0 -5 -1 -11 -1 -12 -1 -2 10 -24 25 -49 22 -41 24 -49 11 -59 -12 -10
-15 -9 -15 4 0 8 -9 30 -20 48 -21 35 -27 78 -10 78 6 0 10 -4 10 -10z"/>
</g>
</svg>
