<svg aria-hidden="true" style="position: absolute; width: 0; height: 0; overflow: hidden;" version="1.1" xmlns="http://www.w3.org/2000/svg" xmlns:xlink="http://www.w3.org/1999/xlink">
<defs>
<symbol id="icon-logo" viewBox="0 0 31 32">
<path d="M18.552 14.295l-1.749-4.008-0.382-0.264-0.447-0.142-0.604-0.163-0.711 0.305-0.473 0.264 1.79 4.007h2.578z"></path>
<path d="M12.274 12.954l1.749 4.017 0.382 0.265 0.447 0.142 0.605 0.164 0.711-0.306 0.474-0.265-1.79-4.017h-2.578z"></path>
<path d="M14.092 10.34l-2.716 3.925 2.716 0.030 1.963-3.955c0.138-0.405 0.569-0.169 0.767 0-0.847-1.554-2.174-0.648-2.731 0zM16.723 16.92l2.716-3.925-2.716-0.030-1.963 3.955c-0.138 0.405-0.569 0.169-0.767 0 0.847 1.554 2.174 0.648 2.731 0z"></path>
</symbol>
</defs>
</svg>
